<?xml version="1.0" standalone="no"?>
<!DOCTYPE svg PUBLIC "-//W3C//DTD SVG 20010904//EN"
 "http://www.w3.org/TR/2001/REC-SVG-20010904/DTD/svg10.dtd">
<svg version="1.0" xmlns="http://www.w3.org/2000/svg"
 width="200.000000pt" height="138.000000pt" viewBox="0 0 200.000000 138.000000"
 preserveAspectRatio="xMidYMid meet">

<g transform="translate(0.000000,138.000000) scale(0.100000,-0.100000)"
fill="#000000" stroke="none">
<path d="M190 1161 l0 -181 35 0 35 0 0 60 0 60 54 0 c126 0 188 128 100 211
-23 21 -36 24 -125 27 l-99 4 0 -181z m184 93 c41 -40 7 -84 -65 -84 l-49 0 0
50 0 50 49 0 c32 0 55 -6 65 -16z"/>
<path d="M902 1089 c-80 -14 -192 -61 -271 -113 -61 -41 -82 -49 -142 -57
-108 -13 -211 -44 -299 -89 -53 -27 -50 -32 8 -14 103 32 211 54 292 60 72 5
91 11 127 35 70 49 204 108 282 124 105 22 277 20 399 -5 98 -19 278 -77 335
-107 16 -8 31 -13 33 -10 6 6 -182 92 -256 117 -159 53 -391 80 -508 59z"/>
<path d="M1191 938 c-106 -5 -199 -12 -206 -16 -8 -4 115 -7 272 -7 276 -1
285 0 263 17 -25 20 -22 20 -329 6z"/>
<path d="M898 913 c12 -2 32 -2 45 0 12 2 2 4 -23 4 -25 0 -35 -2 -22 -4z"/>
<path d="M435 786 c-80 -35 -137 -139 -120 -216 9 -43 22 -29 27 30 10 98 104
170 203 156 85 -13 155 -98 155 -189 0 -16 4 -26 10 -22 16 10 11 97 -9 140
-22 48 -54 79 -103 100 -45 18 -122 19 -163 1z"/>
<path d="M1403 784 c-58 -29 -100 -86 -114 -153 l-11 -60 -47 7 c-69 10 -380
7 -426 -5 -30 -8 1 -9 130 -5 143 4 261 -3 359 -21 5 -1 13 19 17 44 12 82 44
126 112 154 50 21 93 19 144 -6 49 -24 80 -62 98 -122 10 -33 15 -38 20 -24
22 53 -27 142 -101 184 -47 27 -133 30 -181 7z"/>
<path d="M1170 440 c0 -11 7 -20 15 -20 13 0 15 -20 15 -120 0 -100 -2 -120
-15 -120 -8 0 -15 -9 -15 -20 0 -17 7 -20 40 -20 l41 0 -7 50 c-8 62 5 60 55
-5 37 -50 81 -63 81 -25 0 11 -6 20 -14 20 -14 0 -66 61 -66 78 0 6 16 24 35
41 19 17 35 37 35 46 0 11 -10 15 -35 15 -30 0 -35 -3 -35 -23 0 -28 -26 -67
-46 -67 -11 0 -14 19 -14 95 l0 95 -35 0 c-28 0 -35 -4 -35 -20z"/>
<path d="M1424 445 c-8 -21 2 -45 20 -45 19 0 29 29 15 46 -15 18 -28 18 -35
-1z"/>
<path d="M70 436 c0 -8 5 -18 10 -21 6 -4 10 -55 10 -121 0 -69 -4 -114 -10
-114 -5 0 -10 -9 -10 -20 0 -19 7 -20 100 -20 l100 0 0 50 c0 37 -4 50 -14 50
-9 0 -16 -12 -18 -27 -3 -26 -7 -28 -55 -31 l-53 -3 0 116 c0 94 3 117 15 121
8 4 15 12 15 20 0 10 -13 14 -45 14 -33 0 -45 -4 -45 -14z"/>
<path d="M590 436 c0 -8 5 -18 10 -21 6 -4 10 -55 10 -121 0 -69 -4 -114 -10
-114 -5 0 -10 -9 -10 -20 0 -17 7 -20 45 -20 38 0 45 3 45 20 0 11 -7 20 -15
20 -11 0 -15 12 -15 50 0 41 3 50 18 50 9 0 34 5 55 11 29 8 42 18 52 42 17
40 9 83 -18 102 -30 21 -167 21 -167 1z m143 -33 c16 -10 7 -62 -14 -73 -37
-20 -64 -9 -67 28 -5 53 3 65 40 57 18 -4 36 -9 41 -12z"/>
<path d="M322 337 c-40 -43 -41 -138 -1 -178 32 -32 129 -21 129 16 0 12 -10
13 -46 8 -39 -5 -49 -3 -60 12 -27 37 -18 45 51 45 63 0 65 1 65 25 0 33 -25
81 -45 89 -34 12 -72 6 -93 -17z m86 -29 c21 -21 13 -28 -33 -28 -25 0 -45 4
-45 8 0 15 24 32 45 32 12 0 26 -5 33 -12z"/>
<path d="M818 349 c-29 -17 -11 -36 35 -35 36 1 42 -2 45 -21 3 -19 -1 -23
-26 -23 -37 0 -82 -35 -82 -64 0 -12 7 -31 15 -43 13 -19 24 -22 85 -21 62 0
70 3 70 19 0 11 -4 19 -10 19 -6 0 -10 31 -10 74 0 66 -3 77 -22 90 -25 18
-74 20 -100 5z m87 -119 c9 -15 -4 -47 -22 -54 -40 -16 -70 23 -41 52 15 15
54 16 63 2z"/>
<path d="M1000 339 c0 -11 5 -19 10 -19 6 0 10 -30 10 -70 0 -40 -4 -70 -10
-70 -5 0 -10 -9 -10 -20 0 -17 7 -20 45 -20 38 0 45 3 45 20 0 11 -7 20 -15
20 -11 0 -15 12 -15 51 0 66 12 88 45 82 21 -5 25 -2 25 20 0 24 -2 25 -65 25
-57 0 -65 -3 -65 -19z"/>
<path d="M1400 340 c0 -11 5 -20 10 -20 6 0 10 -30 10 -70 0 -40 -4 -70 -10
-70 -5 0 -10 -9 -10 -20 0 -17 7 -20 45 -20 38 0 45 3 45 20 0 11 -7 20 -15
20 -12 0 -15 17 -15 90 l0 90 -30 0 c-23 0 -30 -4 -30 -20z"/>
<path d="M1520 340 c0 -11 5 -20 10 -20 6 0 10 -30 10 -70 0 -40 -4 -70 -10
-70 -5 0 -10 -9 -10 -20 0 -17 7 -20 45 -20 38 0 45 3 45 20 0 11 -7 20 -15
20 -12 0 -15 13 -15 59 0 64 13 85 52 79 21 -3 23 -9 26 -70 2 -43 -1 -68 -8
-68 -5 0 -10 -9 -10 -20 0 -17 7 -20 45 -20 38 0 45 3 45 20 0 11 -7 20 -15
20 -12 0 -15 14 -15 70 0 57 -4 74 -20 90 -22 22 -51 26 -80 10 -13 -7 -21 -7
-25 0 -3 5 -17 10 -31 10 -17 0 -24 -5 -24 -20z"/>
<path d="M1803 345 c-49 -35 -56 -135 -11 -182 19 -21 30 -24 65 -20 43 5 48
-5 20 -41 -12 -15 -59 -16 -74 -1 -13 13 -33 4 -33 -16 0 -21 33 -35 79 -35
31 0 44 6 60 26 19 24 21 40 21 154 l0 126 -53 2 c-32 1 -62 -4 -74 -13z m81
-31 c12 -5 16 -21 16 -65 0 -53 -3 -61 -22 -68 -23 -9 -56 2 -70 23 -14 20 -8
79 9 98 17 18 39 23 67 12z"/>
</g>
</svg>
